<svg width="223" height="223" viewBox="0 0 223 223" fill="none" xmlns="http://www.w3.org/2000/svg">
<path fill-rule="evenodd" clip-rule="evenodd" d="M111.36 193.596L107.816 222.888L100.054 221.949L94.6507 208.645L93.1422 221.113L84.8735 220.113L88.4176 190.82L96.18 191.759L101.583 205.063L103.092 192.596L111.36 193.596ZM103.23 209.311C103.218 209.625 103.21 209.941 103.205 210.259C103.179 211.044 103.152 211.81 103.123 212.558C103.098 213.202 103.073 213.832 103.046 214.449C103.045 214.473 103.044 214.497 103.043 214.521L102.888 214.503L100.945 208.807L94.7703 193.603L90.1629 193.046L87.0993 218.367L91.3969 218.887L92.7273 207.891C92.8615 206.782 92.9602 205.636 93.0232 204.454C93.0408 204.124 93.0557 203.79 93.0677 203.454C93.0822 202.62 93.1011 201.814 93.1246 201.036C93.143 200.426 93.1642 199.834 93.1881 199.26C93.1891 199.235 93.1901 199.211 93.1912 199.187L93.346 199.206L95.289 204.901L101.463 220.105L106.071 220.663L109.135 195.341L104.837 194.821L103.497 205.895C103.362 207.011 103.273 208.15 103.23 209.311Z" fill="white"/>
<path fill-rule="evenodd" clip-rule="evenodd" d="M77.4627 186.837L77.4762 186.852C78.503 187.94 79.2838 189.185 79.8053 190.574C80.3339 191.982 80.5532 193.479 80.4872 195.04L80.4862 195.066L80.4845 195.091C80.3755 196.701 79.9278 198.322 79.1912 199.944C78.4585 201.557 77.5165 202.952 76.3424 204.085C75.2202 205.167 73.985 206.008 72.6327 206.565L72.6181 206.571L72.6033 206.577C71.2566 207.106 69.8617 207.367 68.4318 207.349C67.0026 207.33 65.6373 207.036 64.357 206.454C62.9677 205.823 61.7717 204.995 60.8349 203.935L62.3335 202.61C63.0503 203.421 64.0005 204.095 65.1841 204.633C66.202 205.095 67.293 205.334 68.4571 205.349C69.6212 205.363 70.7595 205.152 71.8718 204.715C72.9605 204.267 73.9878 203.577 74.9537 202.645C75.9195 201.713 76.7251 200.537 77.3702 199.117C78.0261 197.673 78.399 196.286 78.489 194.956C78.5446 193.639 78.3592 192.413 77.9328 191.277C77.5065 190.141 76.8693 189.123 76.0212 188.224C75.1624 187.348 74.1293 186.636 72.922 186.088C71.8094 185.583 70.6635 185.276 69.4843 185.169C68.3051 185.062 67.1776 185.092 66.1018 185.26L66.3254 188.446C66.8431 188.375 67.3505 188.34 67.8477 188.339C68.14 188.339 68.4287 188.351 68.7138 188.374C69.4497 188.452 70.1965 188.662 70.954 189.006C72.3743 189.651 73.358 190.598 73.9049 191.846C74.1966 192.564 74.321 193.344 74.278 194.188C74.2455 194.826 74.1172 195.5 73.8932 196.21L62.8144 191.178C62.6703 191.369 62.5058 191.637 62.3208 191.981C62.1122 192.315 61.9165 192.683 61.7337 193.085C61.1853 194.293 60.8339 195.475 60.6793 196.633C60.5246 197.791 60.5884 198.876 60.8706 199.89C61.1291 200.892 61.6167 201.799 62.3335 202.61L60.8349 203.935C59.9231 202.903 59.281 201.723 58.9388 200.408C58.5809 199.112 58.5113 197.758 58.6969 196.368C58.8806 194.992 59.2941 193.62 59.9127 192.258C60.1179 191.807 60.3428 191.379 60.5897 190.978C60.7877 190.613 60.9967 190.267 61.2163 189.975L62.1808 188.693L64.4088 189.705L63.9781 183.568L65.7929 183.284C67.0443 183.089 68.3371 183.056 69.6655 183.177C71.0752 183.306 72.439 183.672 73.7491 184.267C75.1626 184.909 76.404 185.758 77.449 186.823L77.4627 186.837ZM66.1372 190.49L72.2378 193.261C72.1993 193.03 72.1392 192.818 72.062 192.624C71.7394 191.904 71.156 191.295 70.1269 190.827C69.549 190.565 69.017 190.42 68.5253 190.366C67.9173 190.317 67.2752 190.335 66.5957 190.428L66.1372 190.49ZM64.3821 199.043C64.5954 200.082 65.3057 200.876 66.513 201.424C67.5546 201.898 68.6326 201.945 69.7471 201.566C70.3223 201.37 70.8601 201.047 71.3607 200.597C71.8302 200.175 72.2668 199.641 72.6707 198.995L64.9298 195.479C64.6197 196.162 64.4197 196.804 64.3299 197.404C64.2423 197.99 64.2597 198.536 64.3821 199.043ZM66.2821 198.29C66.2904 198.395 66.3058 198.489 66.3262 198.574L66.3343 198.607L66.3412 198.641C66.3938 198.897 66.553 199.246 67.3401 199.603C67.9037 199.859 68.4549 199.892 69.1032 199.672C69.1431 199.658 69.1834 199.643 69.2243 199.627L66.2821 198.29Z" fill="white"/>
<path fill-rule="evenodd" clip-rule="evenodd" d="M58.9098 176.747L47.5277 197.815L41.1775 191.85L45.4844 184.445L38.2433 189.094L32.9888 184.158L37.2451 176.451L29.9649 181.318L23.8607 175.583L44.0054 162.746L50.1721 168.539L46.3737 175.326L52.8927 171.094L58.9098 176.747ZM44.1963 179.148C43.7682 179.442 43.343 179.738 42.9208 180.037C42.9185 180.039 42.9162 180.041 42.914 180.042C42.8395 180.095 42.7652 180.148 42.691 180.201C41.9435 180.734 41.1613 181.303 40.3442 181.91C40.3351 181.917 40.3261 181.924 40.3171 181.93L40.2034 181.824C40.2085 181.815 40.2137 181.807 40.2189 181.798C40.7559 180.926 41.2672 180.1 41.7529 179.32C41.8007 179.242 41.8485 179.164 41.8962 179.086C42.1652 178.646 42.4339 178.2 42.7024 177.749C42.858 177.487 43.0135 177.223 43.169 176.958L47.6635 168.926L43.7692 165.268L27.1053 175.887L30.1753 178.771L38.6614 173.098C38.9072 172.923 39.152 172.747 39.3958 172.57C39.8174 172.263 40.2361 171.954 40.6517 171.642C40.7346 171.58 40.8174 171.518 40.9001 171.455C41.6273 170.906 42.3724 170.356 43.1355 169.806C43.1455 169.799 43.1554 169.792 43.1654 169.784L43.2791 169.891C43.2736 169.9 43.2681 169.91 43.2626 169.919C42.779 170.734 42.3042 171.54 41.8381 172.337C41.7984 172.404 41.7588 172.472 41.7193 172.54C41.4513 173 41.1864 173.464 40.9246 173.93C40.766 174.212 40.6085 174.496 40.4522 174.78L35.4909 183.764L38.4755 186.568L47.1038 181.029C47.3134 180.896 47.5224 180.762 47.7308 180.628C48.2487 180.294 48.7625 179.957 49.2723 179.616C49.2829 179.609 49.2934 179.602 49.304 179.595C49.3547 179.561 49.4054 179.527 49.4561 179.493C50.2033 178.96 50.9592 178.418 51.7239 177.867C51.7325 177.861 51.7412 177.855 51.7499 177.848L51.8636 177.955C51.8579 177.964 51.8522 177.973 51.8465 177.982C51.344 178.78 50.8409 179.559 50.3373 180.32C50.2891 180.389 50.2411 180.458 50.1934 180.527C50.1863 180.537 50.1793 180.547 50.1722 180.558C49.8339 181.049 49.5075 181.551 49.193 182.064C49.0728 182.26 48.9544 182.458 48.8377 182.657L43.7058 191.481L47.0032 194.579L56.4185 177.151L52.6663 173.626L44.9865 178.612C44.722 178.789 44.4586 178.968 44.1963 179.148Z" fill="white"/>
<path fill-rule="evenodd" clip-rule="evenodd" d="M25.4414 148.655L18.6982 151.388L13.7093 139.078L20.4525 136.345L25.4414 148.655ZM22.8366 147.552L19.3502 138.95L16.3141 140.181L19.8005 148.783L22.8366 147.552Z" fill="white"/>
<path fill-rule="evenodd" clip-rule="evenodd" d="M23.906 114.075L23.8974 114.098C23.3496 115.54 22.6507 116.836 21.7862 117.965L20.6267 119.479L14.4169 115.176L15.661 113.515C16.2308 112.754 16.6544 112.04 16.9516 111.372C17.1811 110.778 17.2946 110.13 17.2769 109.408C17.2672 109.014 17.2204 108.747 17.1703 108.579C17.1424 108.485 17.1171 108.433 17.1038 108.41C17.0955 108.403 17.089 108.398 17.0846 108.395C17.0757 108.389 17.0709 108.386 17.0687 108.386C17.0679 108.385 17.0666 108.385 17.0645 108.384C17.0009 108.448 16.9237 108.545 16.8402 108.693C16.6863 108.964 16.5379 109.294 16.4023 109.692L16.3876 109.735L15.7976 111.238C15.561 111.915 15.2858 112.601 14.9734 113.295C14.6109 114.1 14.1601 114.842 13.6171 115.514L13.6011 115.534L13.5847 115.553C13.0215 116.214 12.3685 116.777 11.6313 117.237L11.5865 117.265L11.5403 117.291C10.6182 117.801 9.59243 118.034 8.52704 118.06C6.27259 118.115 4.31111 117.298 2.811 115.626C1.30802 113.951 0.637285 111.752 0.576532 109.271C0.538241 107.707 0.779053 106.225 1.33948 104.859C1.8313 103.66 2.41546 102.578 3.10413 101.633L4.2747 100.026L10.1694 104.266C10.444 103.739 10.7669 103.242 11.1388 102.78C11.7408 102.004 12.4895 101.386 13.363 100.933C14.3188 100.396 15.3958 100.158 16.5146 100.131C17.6208 100.104 18.6895 100.304 19.6978 100.739C20.6897 101.154 21.5556 101.781 22.2935 102.584L22.3098 102.602L22.3257 102.62C23.0562 103.454 23.6055 104.454 24.0073 105.568C24.4286 106.736 24.638 108.017 24.6715 109.383C24.7102 110.963 24.4528 112.523 23.9141 114.052L23.906 114.075ZM18.9153 102.58C18.1792 102.26 17.3953 102.11 16.5636 102.13C15.6798 102.152 14.9302 102.339 14.3146 102.693C13.6725 103.02 13.1371 103.463 12.7086 104.019C12.2795 104.55 11.9299 105.144 11.6599 105.801C11.3639 106.458 11.1069 107.114 10.8889 107.77C10.7197 108.294 10.5501 108.806 10.3803 109.304C10.2098 109.776 10.025 110.197 9.826 110.566C9.62697 110.935 9.40036 111.239 9.14617 111.48C8.86534 111.695 8.52999 111.807 8.14011 111.816C7.54228 111.831 7.04302 111.622 6.64232 111.19C6.21499 110.732 5.98955 110.023 5.96601 109.061C5.94755 108.307 6.086 107.588 6.38137 106.905C6.6501 106.196 7.02312 105.498 7.50042 104.81L4.72065 102.81C4.6958 102.845 4.67108 102.879 4.64649 102.914C4.30073 103.4 3.97992 103.939 3.68405 104.528C3.51078 104.874 3.34606 105.237 3.1899 105.618C2.74813 106.695 2.54348 107.896 2.57593 109.222C2.62875 111.379 3.20327 113.069 4.2995 114.29C5.39573 115.512 6.78859 116.102 8.47808 116.06C9.28384 116.041 9.98181 115.868 10.572 115.541C11.1356 115.189 11.6322 114.761 12.062 114.256C12.4911 113.726 12.8537 113.131 13.1497 112.474C13.4457 111.817 13.703 111.173 13.9217 110.544L14.5092 109.047C14.6791 108.548 14.8762 108.101 15.1006 107.706C15.325 107.31 15.5902 106.992 15.8964 106.75C16.1766 106.509 16.5116 106.384 16.9015 106.374C17.5773 106.358 18.1422 106.591 18.5962 107.074C19.0241 107.558 19.2508 108.319 19.2763 109.359C19.3005 110.347 19.1411 111.274 18.7982 112.141C18.5668 112.668 18.2794 113.201 17.9361 113.741C17.7312 114.063 17.5065 114.387 17.2618 114.714L20.1984 116.749C20.4143 116.467 20.6196 116.171 20.8143 115.86C20.9749 115.604 21.1284 115.337 21.2746 115.061C21.5514 114.539 21.8024 113.981 22.0277 113.388C22.4898 112.076 22.7046 110.758 22.6721 109.432C22.6428 108.236 22.4608 107.175 22.126 106.246C21.7911 105.318 21.3562 104.549 20.8211 103.938C20.26 103.327 19.6247 102.875 18.9153 102.58ZM8.04346 109.657C8.00906 109.531 7.97311 109.327 7.96541 109.012C7.95394 108.544 8.0382 108.113 8.21726 107.698L8.23532 107.657L8.25146 107.614C8.45675 107.073 8.74966 106.518 9.1436 105.95L9.86365 104.912C9.84999 104.944 9.8365 104.976 9.82317 105.008C9.50591 105.716 9.22824 106.426 8.99109 107.139L8.98829 107.147L8.98556 107.156C8.82153 107.664 8.65742 108.159 8.49324 108.641C8.35186 109.031 8.20777 109.353 8.06575 109.616C8.05826 109.63 8.05083 109.644 8.04346 109.657Z" fill="white"/>
<path fill-rule="evenodd" clip-rule="evenodd" d="M31.5217 98.0487L1.75155 90.4888L3.57803 83.2963L4.29496 83.3653C4.25518 83.2058 4.21764 83.0452 4.18234 82.8836C3.88296 81.5124 3.89636 80.1413 4.23796 78.7961C4.5945 77.3921 5.20444 76.1381 6.11317 75.1005C6.98186 74.0562 8.06584 73.2657 9.33173 72.7311C10.5856 72.2014 11.9538 71.935 13.4074 71.8961C14.865 71.8571 16.3898 72.0526 17.9714 72.4542C19.7381 72.9028 21.322 73.5731 22.6878 74.4941C23.9845 75.35 25.072 76.3594 25.9061 77.5379L25.9146 77.5499L25.923 77.5621C26.7161 78.7186 27.2557 79.9783 27.5209 81.3305C27.7868 82.6862 27.756 84.039 27.4188 85.3667C27.1837 86.2927 26.7815 87.1554 26.2343 87.9517L33.6101 89.8247L31.5217 98.0487ZM22.2297 89.1189C22.9521 88.6161 23.5693 88.0671 24.0811 87.4718C24.1695 87.369 24.2547 87.2648 24.3368 87.1593C24.8944 86.4425 25.2756 85.6809 25.4804 84.8745C25.7427 83.8413 25.7687 82.7883 25.5583 81.7155C25.3479 80.6427 24.9196 79.6353 24.2736 78.6933C23.6024 77.7449 22.7038 76.8997 21.5778 76.1578C20.4329 75.3842 19.0667 74.7958 17.4791 74.3927C16.0427 74.0279 14.7033 73.8621 13.4609 73.8954C12.2185 73.9286 11.1015 74.1546 10.1099 74.5734C9.11833 74.9923 8.29314 75.6009 7.63436 76.3993C6.95678 77.1661 6.47081 78.1291 6.17644 79.2883C5.91406 80.3216 5.90069 81.3778 6.13631 82.457C6.21914 82.8363 6.31563 83.2075 6.42578 83.5706C6.62445 84.2254 6.86757 84.8538 7.15514 85.4558C7.16174 85.4696 7.16835 85.4834 7.17499 85.4971L7.13659 85.6483L5.09419 85.4516L4.18228 89.0426L30.0754 95.618L31.1793 91.2709L25.3581 89.7927L22.2297 89.1189ZM19.2811 82.5966C18.7923 81.9821 17.7844 81.322 15.8824 80.839C14.1963 80.4108 13.0775 80.437 12.3765 80.6529C11.9708 80.778 11.6191 81.0345 11.3988 81.9021C11.2726 82.399 11.3125 83.1644 11.8517 84.2993L18.6875 86.0352C18.921 85.8175 19.0905 85.6178 19.2105 85.4402C19.494 85.0206 19.647 84.667 19.7205 84.3775C19.8674 83.7992 19.7861 83.2567 19.2811 82.5966ZM19.1589 88.2184L10.5026 86.0202C9.47496 84.2571 9.12752 82.7203 9.46029 81.4099C9.81865 79.9987 10.5944 79.1092 11.7876 78.7416C12.9808 78.374 14.5098 78.4269 16.3746 78.9005C18.4914 79.438 19.9861 80.2602 20.8585 81.367C21.7057 82.4674 21.9725 83.635 21.659 84.8698C21.5182 85.4242 21.2544 85.9876 20.8676 86.56C20.4808 87.1324 19.9112 87.6852 19.1589 88.2184Z" fill="white"/>
<path fill-rule="evenodd" clip-rule="evenodd" d="M31.8769 70.8229L11.6842 59.5035L15.366 52.9355L16.1211 53.2721C15.9974 51.8148 16.2417 50.4163 16.9452 49.1613C17.4687 48.2274 18.1152 47.3773 18.9433 46.7918L20.2156 45.8922L26.1004 50.9331L24.4983 52.46C24.2878 52.6607 24.1236 52.8369 23.9982 52.9886C23.9142 53.0901 23.7858 53.2738 23.6183 53.5727C23.5164 53.7545 23.3959 54.1359 23.4803 54.8844L23.4826 54.9052L23.4845 54.926C23.5225 55.3407 23.7536 55.998 24.4349 56.924L36.0259 63.4215L31.8769 70.8229ZM23.0975 58.4671C22.1199 57.2335 21.585 56.114 21.4929 55.1085C21.3781 54.0903 21.505 53.2524 21.8737 52.5947C21.9613 52.4384 22.0473 52.295 22.1315 52.1645C22.2428 51.9919 22.3512 51.8419 22.4567 51.7143C22.6419 51.4903 22.8625 51.2563 23.1185 51.0123L20.0979 48.4249C19.6504 48.7413 19.223 49.2403 18.8156 49.9218C18.8106 49.9302 18.8056 49.9386 18.8006 49.947C18.7635 50.0096 18.7266 50.0737 18.6898 50.1392C18.194 51.0237 18.0057 52.0509 18.1249 53.2206C18.1532 53.5587 18.2097 53.8987 18.2944 54.2406C18.4984 55.0635 18.8662 55.8971 19.3978 56.7414C19.4008 56.7462 19.4039 56.7511 19.4069 56.7559L19.3307 56.892L16.2184 55.505L14.4067 58.7369L31.1103 68.1004L33.3034 64.1881L23.0975 58.4671Z" fill="white"/>
<path fill-rule="evenodd" clip-rule="evenodd" d="M41.7492 54.7359L24.1577 39.6888L25.2744 38.3832C24.976 38.4887 24.662 38.5649 24.3328 38.6081C23.0296 38.7789 21.8389 38.3726 20.8728 37.5462C19.9133 36.7254 19.3287 35.6217 19.2883 34.3196C19.2285 33.0374 19.6899 31.8923 20.4968 30.9489C21.3037 30.0056 22.3635 29.3723 23.6395 29.2327C24.9321 29.0708 26.1131 29.4773 27.0726 30.298C28.0388 31.1244 28.6247 32.2378 28.6579 33.5516C28.6662 33.8836 28.6397 34.2056 28.5816 34.5168L29.673 33.2408L47.2645 48.2879L41.7492 54.7359ZM23.8726 31.2191C23.1592 31.2932 22.5405 31.6365 22.0166 32.249C21.4927 32.8615 21.2495 33.5258 21.2869 34.2421C21.3045 34.9415 21.5998 35.5362 22.1728 36.0263C22.7458 36.5164 23.3791 36.716 24.0727 36.625C24.7664 36.5341 25.3752 36.1824 25.8991 35.5699C26.423 34.9574 26.6761 34.3014 26.6585 33.6021C26.6409 32.9027 26.3455 32.308 25.7726 31.8179C25.1996 31.3277 24.5663 31.1282 23.8726 31.2191ZM41.5293 51.916L44.4446 48.5078L29.8929 36.0607L26.9775 39.469L41.5293 51.916Z" fill="white"/>
<path fill-rule="evenodd" clip-rule="evenodd" d="M51.3354 43.5194L37.7296 24.7909L43.779 20.3961L44.4068 21.0715C44.4527 20.9554 44.4998 20.8398 44.5482 20.7248L44.5526 20.7142L44.5572 20.7037C45.1858 19.2563 46.2042 18.0558 47.5287 17.0936C49.5577 15.6195 51.8259 15.0058 54.1369 15.7883C56.2125 16.4755 57.9976 18.0817 59.5566 20.2276L67.7922 31.5639L60.9274 36.551L53.0357 25.688C52.1478 24.4658 51.6159 24.1531 51.4883 24.111C51.4702 24.105 51.4496 24.0982 51.3864 24.1128C51.3038 24.132 51.1279 24.1953 50.8554 24.3932C50.4662 24.676 50.2416 24.9809 50.1105 25.3158L50.1065 25.3258L50.1025 25.3357C49.9574 25.6948 49.8118 26.1761 49.6746 26.7969L58.2002 38.5323L51.3354 43.5194ZM47.5442 27.2672C47.7379 26.1624 47.9725 25.2689 48.2481 24.5866C48.5295 23.868 49.0067 23.2642 49.6799 22.7752C50.5423 22.1486 51.3539 21.9608 52.1145 22.2116C52.8752 22.4624 53.7216 23.2294 54.6538 24.5125L61.37 33.7574L64.9986 31.1214L57.9385 21.4031C56.5021 19.4258 55.0232 18.1864 53.5018 17.6848C51.9652 17.1621 50.366 17.5044 48.7042 18.7116C47.6314 19.491 46.8606 20.4206 46.3917 21.5004C46.2239 21.8991 46.0732 22.3058 45.9395 22.7204C45.7193 23.403 45.5454 24.1071 45.4175 24.8326C45.4158 24.8428 45.414 24.853 45.4122 24.8632L45.286 24.9549L43.5207 23.0558L40.5232 25.2334L51.778 40.7258L55.4066 38.0897L47.5442 27.2672Z" fill="white"/>
<path fill-rule="evenodd" clip-rule="evenodd" d="M79.8244 35.2155C78.6771 35.3606 77.568 35.3481 76.5183 35.1394C75.4503 34.9271 74.4673 34.5088 73.6073 33.863L73.5838 33.8454L73.5608 33.827C72.6557 33.1048 72.0287 32.1536 71.6444 31.0628C71.239 29.9122 71.2023 28.7194 71.5031 27.538L71.5074 27.521L71.512 27.5041C71.62 27.109 71.7633 26.7233 71.9379 26.3471C71.9192 26.333 71.9005 26.3188 71.8819 26.3044L71.8534 26.2825L71.8257 26.2596C71.0102 25.5843 70.4714 24.6815 70.1256 23.7001C69.7444 22.6181 69.6924 21.494 69.9986 20.3837L70.0009 20.3755L70.0032 20.3674C70.058 20.175 70.1182 19.9856 70.184 19.7995C69.8372 19.5765 69.499 19.3282 69.1693 19.0577L69.142 19.0353L69.1156 19.012C68.0679 18.0885 67.3207 16.912 66.842 15.5533C66.3933 14.2797 66.2118 12.9862 66.3577 11.6976C66.4937 10.4955 66.8515 9.3695 67.4497 8.34726C68.048 7.31867 68.8367 6.44007 69.7968 5.71633C70.7287 4.98324 71.7741 4.41768 72.9191 4.0143C73.5151 3.80434 74.1195 3.65622 74.7303 3.57765C75.1657 3.49955 75.5925 3.44613 76.008 3.42227L84.0834 0.577305L86.514 7.47666L84.1431 8.31195C84.3391 8.67222 84.5053 9.05183 84.6445 9.44684C85.0769 10.6743 85.2638 11.9183 85.1298 13.151C85.027 14.3084 84.687 15.3968 84.1008 16.3894C83.6886 17.0875 83.1781 17.7152 82.5813 18.2746C84.4018 17.7716 86.1188 17.6078 87.6431 17.9645C89.8202 18.4336 91.2445 19.9651 91.9753 22.0394C92.4073 23.2657 92.4889 24.5391 92.2371 25.8202C92.01 27.0919 91.4716 28.2676 90.6786 29.3386C89.8874 30.4073 88.8547 31.3511 87.6308 32.1875C86.3981 33.0689 84.9649 33.7832 83.358 34.3493C82.1654 34.7694 80.9902 35.0616 79.8352 35.2141L79.8244 35.2155ZM86.4847 30.5484C87.574 29.8062 88.4362 29.0063 89.0713 28.1485C89.7063 27.2908 90.1063 26.3918 90.2713 25.4515C90.4607 24.5027 90.4 23.5868 90.089 22.704C89.536 21.1346 88.5746 20.2052 87.2047 19.916C85.8506 19.5936 84.0823 19.8169 81.8998 20.5858L78.6996 21.7132C77.5961 22.102 76.7718 22.227 76.2267 22.0882C75.7061 21.9408 75.3551 21.6096 75.1737 21.0946C75.0268 20.6778 74.9838 20.3208 75.0445 20.0237C75.1298 19.718 75.2641 19.395 75.4474 19.0548C75.9248 19.0796 76.3849 19.0553 76.8277 18.982C77.2705 18.9087 77.6881 18.8029 78.0804 18.6647C79.0368 18.3278 79.8844 17.8776 80.6231 17.3141C81.3619 16.7506 81.9471 16.1034 82.3787 15.3724C82.8103 14.6414 83.0639 13.8354 83.1394 12.9542C83.2394 12.0644 83.1123 11.1168 82.7581 10.1114C82.612 9.69654 82.4334 9.32227 82.2225 8.98858C82.1093 8.80943 81.9867 8.64198 81.8548 8.48623C81.4685 8.01584 81.0678 7.66083 80.6526 7.42118L83.9631 6.25487L82.8616 3.12823L76.3876 5.40902C75.9766 5.41599 75.5251 5.46477 75.0333 5.55535C74.5573 5.61277 74.0741 5.72787 73.5837 5.90066C72.6273 6.23759 71.7718 6.70439 71.0171 7.30104C70.2539 7.87316 69.6406 8.55787 69.1771 9.35515C68.7296 10.1193 68.4522 10.9751 68.345 11.9226C68.2377 12.87 68.3655 13.8587 68.7283 14.8887C69.1085 15.9677 69.6784 16.842 70.438 17.5116C70.6511 17.6865 70.8643 17.8468 71.0775 17.9924C71.5336 18.3042 71.9901 18.5491 72.4469 18.7273C72.5537 18.7689 72.6604 18.8069 72.7672 18.8412L72.819 18.9884C72.7513 19.0849 72.6863 19.1844 72.624 19.2867C72.3682 19.7065 72.1583 20.1748 71.9941 20.6915C71.9707 20.7651 71.9482 20.8398 71.9266 20.9154C71.733 21.6176 71.7614 22.3244 72.012 23.0355C72.2505 23.7127 72.5771 24.242 72.9918 24.6236C73.0277 24.6565 73.0642 24.6884 73.1013 24.7192C73.5376 25.0548 74.0045 25.2927 74.5022 25.4329C74.5653 25.4507 74.629 25.467 74.6931 25.4816L74.7449 25.6287C74.704 25.6795 74.664 25.7302 74.6247 25.7808C74.2353 26.2841 73.9304 26.7844 73.7101 27.2816C73.599 27.5323 73.5094 27.7823 73.4412 28.0315C73.2331 28.8491 73.2629 29.638 73.5308 30.3982C73.8072 31.1829 74.233 31.8048 74.8082 32.2637C75.4079 32.714 76.108 33.0187 76.9083 33.1778C77.7086 33.3369 78.597 33.3547 79.5735 33.2313C80.5745 33.0992 81.6145 32.843 82.6935 32.4629C84.1648 31.9445 85.4286 31.3064 86.4847 30.5484ZM85.6039 27.344C86.3125 26.4603 86.5286 25.6261 86.2521 24.8414C86.0016 24.1302 85.5511 23.7514 84.9007 23.7048C84.2748 23.6497 83.4469 23.8035 82.4169 24.1664L79.9524 25.0346C78.9715 25.3802 78.1198 25.5838 77.3972 25.6454C76.7159 26.6848 76.5307 27.646 76.8417 28.5288C77.1268 29.338 77.7517 29.8208 78.7165 29.9771C79.7144 30.1493 80.9368 29.9806 82.3836 29.4708C83.855 28.9525 84.9284 28.2435 85.6039 27.344ZM78.7242 27.4634C78.6718 27.6794 78.706 27.8014 78.7281 27.8642C78.736 27.8867 78.7428 27.9016 78.7473 27.9103C78.749 27.9137 78.7504 27.9162 78.7515 27.9182C78.7533 27.9193 78.7556 27.9207 78.7585 27.9223C78.7668 27.927 78.781 27.9343 78.8027 27.943C78.8465 27.9607 78.9212 27.9842 79.0364 28.0029L79.0465 28.0045L79.0566 28.0063C79.5881 28.098 80.4419 28.0344 81.7191 27.5845C82.9572 27.1483 83.6415 26.6265 84.0046 26.143L84.0237 26.1176L84.0436 26.0927C84.1663 25.9397 84.2432 25.8173 84.291 25.7254C84.0126 25.7689 83.6169 25.8641 83.0815 26.0527L80.617 26.921C79.9649 27.1507 79.3321 27.3354 78.7242 27.4634ZM77.1514 8.98544C76.3382 8.55519 75.4902 8.49558 74.6074 8.8066C73.7246 9.11761 73.0847 9.68765 72.6876 10.5167C72.2905 11.3457 72.295 12.3366 72.701 13.4891C73.1157 14.6662 73.7419 15.4656 74.5796 15.8872C75.4086 16.2842 76.2646 16.3273 77.1474 16.0163C78.0057 15.7139 78.6334 15.1482 79.0305 14.3191C79.4189 13.4655 79.4058 12.4502 78.9911 11.2731C78.5937 10.1451 77.9804 9.38252 77.1514 8.98544ZM77.2172 13.4746C77.3248 13.2266 77.3996 12.7746 77.1047 11.9377C76.8283 11.153 76.5064 10.8941 76.2875 10.7892L76.2514 10.7719L76.2161 10.7532C75.906 10.5892 75.6387 10.5637 75.272 10.693C74.8792 10.8313 74.6547 11.0397 74.4913 11.3806C74.3911 11.5898 74.2975 12.0019 74.5874 12.8246C74.8822 13.6613 75.2237 13.9667 75.463 14.0926C75.7962 14.2475 76.0975 14.2656 76.4828 14.1299C76.8287 14.0081 77.0479 13.8184 77.2172 13.4746Z" fill="white"/>
<path fill-rule="evenodd" clip-rule="evenodd" d="M107.243 12.7638L107.561 5.49476L120.83 6.07508L120.512 13.3441L107.243 12.7638ZM109.328 10.8531L118.601 11.2587L118.744 7.98578L109.471 7.58023L109.328 10.8531Z" fill="white"/>
<path fill-rule="evenodd" clip-rule="evenodd" d="M141.95 26.9207L141.945 26.9151C140.902 25.8589 140.117 24.629 139.602 23.2405C139.081 21.8335 138.882 20.3294 138.971 18.7557C139.062 17.1448 139.492 15.5187 140.21 13.8887C140.938 12.2371 141.889 10.8147 143.09 9.67176C144.246 8.57086 145.541 7.73587 146.974 7.20416L147.67 9.07926C146.515 9.50777 145.448 10.1881 144.469 11.1203C143.49 12.0525 142.68 13.2443 142.04 14.6955C141.4 16.1467 141.043 17.5377 140.968 18.8685C140.893 20.1992 141.063 21.4249 141.478 22.5457C141.893 23.6664 142.523 24.6544 143.368 25.5099C144.236 26.3758 145.265 27.0709 146.455 27.5953C147.454 28.0358 148.52 28.2926 149.653 28.3658C150.809 28.4494 151.961 28.3179 153.109 27.9712L152.627 24.5197C152.001 24.6896 151.343 24.7967 150.652 24.841C150.594 24.8448 150.536 24.848 150.478 24.8509C149.757 24.8742 149.052 24.7337 148.362 24.4296C146.982 23.8213 146.083 22.7997 145.664 21.3649C145.279 19.9167 145.475 18.3124 146.251 16.5519C147.038 14.7675 148.102 13.546 149.444 12.8873C150.796 12.2047 152.186 12.1781 153.613 12.8074C154.16 13.0486 154.608 13.3878 154.955 13.825C155.139 14.0299 155.314 14.257 155.478 14.5063C155.654 14.7728 155.819 15.0648 155.973 15.3821L159.151 13.5866C158.976 13.2231 158.775 12.8674 158.549 12.5197C158.409 12.3046 158.259 12.0926 158.1 11.8835C157.929 11.6587 157.746 11.4373 157.552 11.2195C156.911 10.4822 156.02 9.8619 154.878 9.35848C153.712 8.84457 152.5 8.56576 151.24 8.52204C150.015 8.46501 148.825 8.65075 147.67 9.07926L146.974 7.20416C148.377 6.68396 149.831 6.45582 151.321 6.52366C152.834 6.57765 154.292 6.91463 155.685 7.52841C157.02 8.1171 158.175 8.89062 159.054 9.89854C159.828 10.7705 160.466 11.7095 160.952 12.7166L161.768 14.4055L155.102 18.1713L154.173 16.254C153.942 15.7769 153.702 15.4226 153.468 15.1628L153.427 15.117L153.388 15.0687C153.257 14.9037 153.078 14.7573 152.806 14.6374C151.907 14.2411 151.145 14.2689 150.345 14.6727L150.335 14.6777L150.325 14.6826C149.521 15.0775 148.737 15.872 148.081 17.3586C147.441 18.8105 147.36 19.9343 147.591 20.8281C147.844 21.677 148.331 22.2304 149.169 22.5995C149.592 22.7862 149.996 22.8632 150.398 22.8523C151.013 22.8214 151.579 22.7318 152.102 22.5897L154.294 21.9942L155.326 29.3906L153.687 29.8858C152.316 30.2999 150.922 30.4618 149.516 30.3611C148.162 30.2728 146.868 29.9631 145.648 29.4254C144.247 28.8076 143.009 27.9764 141.956 26.9262L141.95 26.9207Z" fill="white"/>
<path fill-rule="evenodd" clip-rule="evenodd" d="M160.401 33.7204L160.4 33.7051C160.286 32.2209 160.494 30.7235 160.984 29.229C161.494 27.6749 162.349 26.2099 163.496 24.8313C164.643 23.4527 165.928 22.3451 167.363 21.5609C168.743 20.8067 170.178 20.3296 171.658 20.1707L171.673 20.1691L171.688 20.1677C173.149 20.0336 174.577 20.1815 175.956 20.6193C177.349 21.0361 178.612 21.7156 179.733 22.6481C180.852 23.5789 181.749 24.6951 182.412 25.9854C183.116 27.2806 183.528 28.6705 183.64 30.1376C183.753 31.6162 183.547 33.108 183.061 34.5969C182.571 36.1745 181.723 37.6537 180.573 39.0363C179.423 40.4189 178.123 41.5219 176.661 42.2902C175.286 43.0395 173.856 43.5136 172.382 43.6719C170.912 43.8297 169.464 43.6759 168.056 43.2147C166.688 42.7766 165.443 42.0896 164.331 41.1646C163.217 40.2379 162.314 39.1363 161.633 37.868C160.946 36.5864 160.537 35.2028 160.402 33.7358L160.401 33.7204ZM168.673 41.312C169.815 41.6872 170.98 41.8109 172.168 41.6834C173.357 41.5558 174.54 41.1702 175.718 40.5267C176.916 39.8998 178.022 38.9766 179.036 37.7573C180.05 36.538 180.756 35.2823 181.155 33.9904C181.573 32.715 181.737 31.4815 181.646 30.2898C181.555 29.0981 181.221 27.9749 180.644 26.9201C180.104 25.862 179.374 24.9505 178.454 24.1857C177.535 23.4208 176.506 22.8692 175.367 22.5306C174.245 22.1721 173.079 22.0483 171.871 22.1593C170.683 22.2869 169.5 22.6724 168.322 23.316C167.144 23.9595 166.048 24.891 165.034 26.1103C164.019 27.3296 163.303 28.5769 162.885 29.8523C162.467 31.1277 162.303 32.3612 162.394 33.5529C162.505 34.7612 162.839 35.8844 163.396 36.9226C163.952 37.9607 164.691 38.8622 165.61 39.627C166.53 40.3918 167.55 40.9535 168.673 41.312ZM175.543 30.3028L175.544 30.2923C175.614 29.5232 175.397 29.0128 174.831 28.5417C174.266 28.0715 173.725 27.9507 172.984 28.1577C172.169 28.3922 171.198 29.023 170.109 30.3322C169.051 31.6039 168.595 32.6743 168.495 33.5549C168.442 34.2852 168.659 34.793 169.234 35.271C169.812 35.7522 170.354 35.8712 171.07 35.6808C171.929 35.4368 172.903 34.8059 173.96 33.5354C175.044 32.2322 175.474 31.164 175.543 30.3133L175.543 30.3028ZM171.6 37.6092C170.249 37.9733 169.034 37.7064 167.955 36.8086C166.875 35.9107 166.391 34.7643 166.503 33.3694C166.652 31.9711 167.341 30.5324 168.572 29.0532C169.819 27.5541 171.108 26.6141 172.439 26.2334C173.807 25.8494 175.031 26.1062 176.11 27.0041C177.189 27.9019 177.665 29.0583 177.536 30.4732C177.424 31.8682 176.745 33.3152 175.498 34.8144C174.267 36.2936 172.968 37.2252 171.6 37.6092Z" fill="white"/>
<path fill-rule="evenodd" clip-rule="evenodd" d="M201.19 32.9823L206.272 39.7777L186.982 54.201L188.029 54.9978L183.088 60.2372L181.722 59.4571C180.827 58.9463 180.054 58.1547 179.374 57.2461C178.179 55.6481 177.533 53.7599 178.211 51.8102C178.768 50.206 179.953 48.862 181.473 47.7255L201.19 32.9823ZM182.713 57.7201C182.147 57.3969 181.568 56.8397 180.976 56.0484C180.011 54.7574 179.719 53.5636 180.1 52.4669C180.481 51.3703 181.338 50.3237 182.671 49.3273L200.786 35.7817L203.472 39.3736L185.169 53.0593C184.732 53.3863 184.482 53.7031 184.419 54.0098C184.377 54.301 184.426 54.5402 184.566 54.7276L184.729 54.9463C184.792 55.0296 184.898 55.1285 185.049 55.2431L182.713 57.7201Z" fill="white"/>
<path fill-rule="evenodd" clip-rule="evenodd" d="M212.672 49.9732L216.493 57.5488L194.989 68.3971L195.882 69.3639L190.105 73.6641L188.895 72.6581C188.102 71.9994 187.479 71.0855 186.968 70.0725C186.069 68.291 185.761 66.3192 186.767 64.5171C187.596 63.0344 188.996 61.9169 190.69 61.0621L212.672 49.9732ZM190.173 71.1201C189.672 70.7033 189.198 70.0538 188.753 69.1717C188.027 67.7325 187.947 66.506 188.514 65.4924C189.08 64.4788 190.106 63.5972 191.591 62.8478L211.787 52.6597L213.807 56.664L193.402 66.9575C192.915 67.2034 192.614 67.4719 192.498 67.763C192.406 68.0424 192.413 68.2866 192.518 68.4955L192.641 68.7392C192.688 68.8321 192.776 68.948 192.904 69.0871L190.173 71.1201Z" fill="white"/>
<path fill-rule="evenodd" clip-rule="evenodd" d="M192.791 82.9281L192.794 82.9087C193.01 81.4279 193.501 80.0434 194.267 78.7722C195.043 77.4838 196.08 76.383 197.346 75.4654L197.366 75.4505L197.387 75.4361C198.717 74.5224 200.266 73.8673 201.995 73.4383C203.715 73.0116 205.393 72.8846 207.01 73.1021C208.555 73.3099 209.981 73.7564 211.257 74.4715L211.271 74.4792L211.284 74.4872C212.535 75.2147 213.605 76.1465 214.479 77.2789C215.351 78.4107 215.968 79.6642 216.306 81.0291C216.674 82.5101 216.767 83.9621 216.517 85.3544L214.548 85.0014C214.739 83.9361 214.678 82.7725 214.365 81.5108C214.096 80.4257 213.606 79.4222 212.895 78.5002C212.184 77.5783 211.312 76.8169 210.279 76.2161C209.252 75.6404 208.073 75.2631 206.743 75.0842C205.413 74.9053 203.991 75.0037 202.477 75.3794C200.937 75.7614 199.618 76.3297 198.52 77.0845C197.453 77.8583 196.606 78.7649 195.98 79.8042C195.354 80.8436 194.952 81.9748 194.773 83.1979C194.619 84.4146 194.702 85.6665 195.022 86.9535C195.316 88.1395 195.787 89.2281 196.435 90.2193C197.082 91.2105 197.806 92.0756 198.606 92.8148L200.965 90.6624C200.588 90.3003 200.245 89.9245 199.936 89.535C199.754 89.3061 199.584 89.0725 199.426 88.8341C199.03 88.2091 198.732 87.4929 198.531 86.6853C198.156 85.1713 198.287 83.8126 198.926 82.6092C199.308 81.9349 199.843 81.3529 200.531 80.8631C201.051 80.4926 201.66 80.1749 202.355 79.91L205.286 91.7199C205.525 91.714 205.837 91.6767 206.222 91.608C206.613 91.5646 207.023 91.4896 207.452 91.3832C208.739 91.0638 209.885 90.6055 210.888 90.0082C211.892 89.4109 212.704 88.6871 213.323 87.8369C213.949 87.012 214.357 86.0668 214.548 85.0014L216.517 85.3544C216.274 86.7097 215.747 87.9457 214.928 89.0301C214.134 90.1149 213.116 91.01 211.911 91.7269C210.718 92.437 209.386 92.964 207.934 93.3243C207.452 93.4438 206.977 93.533 206.51 93.5881C206.101 93.6592 205.7 93.7103 205.335 93.7193L203.731 93.7587L203.142 91.3836L198.597 95.5304L197.248 94.2834C196.318 93.4236 195.49 92.43 194.761 91.3134C193.986 90.1285 193.427 88.8318 193.08 87.4351C192.707 85.9285 192.602 84.4281 192.789 82.9476L192.791 82.9281ZM202.684 89.5412L201.071 83.038C200.913 83.2116 200.785 83.3901 200.68 83.5714C200.316 84.2712 200.2 85.1067 200.472 86.2037C200.625 86.8197 200.842 87.3269 201.104 87.746C201.443 88.2533 201.856 88.7452 202.351 89.2205L202.684 89.5412ZM210.48 85.6091C211.162 84.7968 211.344 83.7472 211.025 82.4602C210.749 81.3499 210.117 80.4754 209.128 79.8368C208.618 79.5072 208.031 79.2858 207.367 79.1726C206.745 79.0665 206.055 79.0554 205.298 79.1396L207.346 87.3913C208.074 87.2107 208.701 86.9694 209.227 86.6674C209.741 86.3725 210.158 86.0197 210.48 85.6091ZM208.71 84.5864C208.787 84.515 208.852 84.4445 208.905 84.376L208.926 84.3489L208.949 84.3225C209.117 84.1224 209.292 83.7809 209.083 82.9419C208.934 82.3411 208.618 81.8884 208.043 81.5169C208.008 81.4941 207.971 81.4717 207.932 81.4501L208.71 84.5864Z" fill="white"/>
<path fill-rule="evenodd" clip-rule="evenodd" d="M196.192 106.042L196.195 106.034C196.774 104.668 197.613 103.474 198.701 102.469C199.803 101.451 201.118 100.694 202.607 100.177C204.131 99.648 205.798 99.4259 207.579 99.4695C209.384 99.5137 211.061 99.8511 212.575 100.526C214.033 101.176 215.299 102.055 216.336 103.178L214.867 104.535C214.031 103.631 212.996 102.903 211.761 102.353C210.526 101.802 209.116 101.508 207.53 101.469C205.945 101.43 204.522 101.629 203.263 102.067C202.004 102.504 200.936 103.128 200.057 103.939C199.179 104.749 198.506 105.708 198.036 106.815C197.567 107.948 197.316 109.164 197.284 110.464C197.257 111.555 197.426 112.639 197.789 113.714C198.153 114.815 198.713 115.83 199.47 116.759L202.478 114.999C202.083 114.486 201.733 113.918 201.429 113.296C201.404 113.244 201.379 113.191 201.354 113.138C201.058 112.481 200.919 111.775 200.937 111.021C200.974 109.514 201.576 108.293 202.744 107.359C203.936 106.452 205.494 106.022 207.417 106.07C209.367 106.117 210.902 106.636 212.022 107.626C213.168 108.616 213.722 109.891 213.684 111.45C213.669 112.048 213.526 112.591 213.254 113.078C213.134 113.327 212.991 113.575 212.823 113.822C212.644 114.086 212.437 114.35 212.202 114.613L215.072 116.868C215.342 116.567 215.594 116.246 215.829 115.904C215.975 115.693 216.114 115.474 216.247 115.247C216.389 115.003 216.525 114.75 216.652 114.488C217.09 113.614 217.324 112.554 217.354 111.306C217.385 110.033 217.181 108.805 216.742 107.624C216.328 106.47 215.703 105.44 214.867 104.535L216.336 103.178C217.351 104.276 218.116 105.534 218.621 106.938C219.147 108.357 219.391 109.834 219.354 111.355C219.318 112.814 219.043 114.177 218.446 115.374C217.934 116.421 217.309 117.368 216.563 118.202L215.312 119.599L209.291 114.87L210.71 113.281C211.063 112.886 211.299 112.528 211.45 112.213L211.477 112.158L211.507 112.104C211.61 111.92 211.677 111.699 211.684 111.402C211.708 110.419 211.392 109.725 210.714 109.139L210.706 109.132L210.697 109.124C210.026 108.531 208.993 108.109 207.369 108.069C205.782 108.03 204.712 108.383 203.974 108.937C203.285 109.495 202.959 110.155 202.937 111.07C202.925 111.533 203.008 111.936 203.171 112.304C203.434 112.86 203.733 113.35 204.063 113.779L205.448 115.579L199.003 119.35L197.921 118.023C197.016 116.914 196.335 115.686 195.893 114.348C195.458 113.062 195.252 111.748 195.284 110.415C195.322 108.884 195.619 107.423 196.189 106.049L196.192 106.042Z" fill="white"/>
<path fill-rule="evenodd" clip-rule="evenodd" d="M193.428 127.999L193.436 127.99C194.141 127.128 194.998 126.451 196.003 125.996L196.045 125.977L196.089 125.959C197.067 125.57 198.109 125.383 199.193 125.373L199.23 125.373L199.266 125.374C200.332 125.403 201.434 125.58 202.565 125.887L209.442 127.752L210.157 125.118L217.132 127.009L216.507 130.104L221.516 132.041L219.54 139.323L214.497 137.955L213.22 142.66L205.935 140.684L207.211 135.979L200.333 134.114C199.462 133.877 199.115 133.98 199.053 134.008C199.037 134.014 199.029 134.018 199.008 134.045C198.978 134.083 198.91 134.19 198.846 134.426C198.798 134.603 198.769 134.789 198.761 134.988L198.761 135.004L198.76 135.019C198.746 135.273 198.759 135.468 198.783 135.612L199.175 138.016L191.539 137.758L191.41 135.963C191.363 135.308 191.371 134.605 191.425 133.86C191.454 133.032 191.589 132.193 191.818 131.348C192.161 130.084 192.674 128.943 193.42 128.009L193.428 127.999ZM193.423 133.966C193.372 134.652 193.366 135.27 193.405 135.82L196.809 135.935C196.758 135.625 196.743 135.284 196.763 134.912C196.774 134.627 196.81 134.35 196.871 134.079C196.885 134.02 196.9 133.961 196.915 133.903C197.385 132.171 198.699 131.598 200.857 132.184L209.665 134.572L208.389 139.277L211.814 140.207L213.09 135.502L218.134 136.87L219.114 133.256L214.213 131.361L214.801 128.449L211.564 127.571L210.849 130.206L202.041 127.817C201.037 127.545 200.094 127.397 199.212 127.373C198.348 127.381 197.553 127.529 196.828 127.818C196.122 128.138 195.507 128.618 194.983 129.257C194.453 129.921 194.041 130.793 193.749 131.872C193.551 132.6 193.443 133.298 193.423 133.966Z" fill="white"/>
<path fill-rule="evenodd" clip-rule="evenodd" d="M188.903 141.036L209.63 151.345L208.865 152.883C209.129 152.708 209.415 152.558 209.724 152.436C210.946 151.953 212.2 152.057 213.338 152.623C214.469 153.185 215.304 154.113 215.661 155.366C216.031 156.595 215.863 157.818 215.31 158.93C214.757 160.041 213.883 160.914 212.68 161.36C211.466 161.832 210.221 161.725 209.091 161.163C207.952 160.597 207.113 159.66 206.761 158.394C206.672 158.074 206.619 157.755 206.599 157.439L205.852 158.942L185.125 148.633L188.903 141.036ZM211.97 159.49C212.644 159.245 213.16 158.761 213.519 158.039C213.878 157.318 213.952 156.614 213.741 155.928C213.554 155.254 213.123 154.749 212.448 154.414C211.772 154.078 211.11 154.039 210.459 154.296C209.808 154.553 209.304 155.042 208.945 155.764C208.586 156.486 208.5 157.184 208.687 157.858C208.875 158.532 209.306 159.036 209.981 159.372C210.656 159.708 211.319 159.747 211.97 159.49ZM189.804 143.718L187.806 147.733L204.952 156.261L206.949 152.245L189.804 143.718Z" fill="white"/>
<path fill-rule="evenodd" clip-rule="evenodd" d="M183.122 157.587L183.137 157.585C184.622 157.476 186.118 157.688 187.612 158.182C189.164 158.696 190.627 159.555 192.003 160.705C193.378 161.855 194.483 163.143 195.263 164.58C196.013 165.963 196.487 167.398 196.642 168.879L196.643 168.894L196.645 168.909C196.775 170.37 196.623 171.798 196.182 173.176C195.762 174.568 195.079 175.829 194.143 176.948C193.21 178.065 192.091 178.959 190.799 179.618C189.502 180.319 188.111 180.727 186.644 180.835C185.165 180.944 183.673 180.734 182.186 180.244C180.609 179.75 179.133 178.899 177.753 177.745C176.373 176.591 175.274 175.288 174.509 173.824C173.764 172.447 173.293 171.016 173.139 169.541C172.985 168.071 173.142 166.624 173.607 165.217C174.049 163.85 174.739 162.607 175.667 161.497C176.597 160.386 177.701 159.485 178.971 158.808C180.254 158.124 181.639 157.719 183.106 157.588L183.122 157.587ZM175.508 165.838C175.13 166.98 175.003 168.144 175.128 169.333C175.252 170.522 175.635 171.706 176.275 172.885C176.899 174.085 177.819 175.193 179.036 176.211C180.253 177.228 181.506 177.938 182.797 178.34C184.072 178.761 185.305 178.928 186.497 178.84C187.689 178.752 188.813 178.421 189.869 177.847C190.928 177.31 191.842 176.582 192.609 175.665C193.376 174.748 193.931 173.72 194.272 172.582C194.634 171.461 194.76 170.296 194.653 169.087C194.528 167.898 194.146 166.714 193.505 165.535C192.865 164.355 191.936 163.257 190.72 162.239C189.503 161.222 188.258 160.502 186.983 160.081C185.709 159.659 184.476 159.492 183.284 159.58C182.075 159.688 180.951 160.019 179.912 160.573C178.872 161.127 177.969 161.863 177.201 162.78C176.434 163.698 175.87 164.717 175.508 165.838ZM186.5 172.738L186.51 172.739C187.279 172.811 187.79 172.595 188.263 172.03C188.734 171.466 188.856 170.926 188.651 170.185C188.419 169.368 187.791 168.396 186.484 167.304C185.215 166.243 184.146 165.783 183.266 165.681C182.536 165.626 182.027 165.842 181.548 166.415C181.065 166.992 180.945 167.534 181.133 168.251C181.375 169.11 182.003 170.086 183.271 171.146C184.571 172.234 185.639 172.667 186.489 172.737L186.5 172.738ZM179.204 168.776C178.843 167.424 179.113 166.209 180.014 165.132C180.914 164.055 182.062 163.574 183.457 163.69C184.855 163.842 186.292 164.535 187.767 165.77C189.263 167.021 190.2 168.312 190.577 169.644C190.958 171.013 190.697 172.236 189.797 173.313C188.896 174.39 187.738 174.863 186.324 174.73C184.929 174.615 183.484 173.932 181.988 172.681C180.512 171.446 179.584 170.145 179.204 168.776Z" fill="white"/>
<path fill-rule="evenodd" clip-rule="evenodd" d="M165.47 173.243L178.143 192.615L171.885 196.709L171.291 196.003C171.24 196.117 171.187 196.23 171.133 196.343L171.128 196.353L171.123 196.363C170.425 197.778 169.349 198.927 167.979 199.824C165.88 201.197 163.584 201.699 161.314 200.804C159.275 200.016 157.571 198.325 156.118 196.105L148.448 184.379L155.548 179.734L162.899 190.97C163.726 192.234 164.242 192.573 164.367 192.621C164.385 192.628 164.405 192.636 164.469 192.624C164.552 192.609 164.731 192.554 165.013 192.37C165.416 192.107 165.655 191.813 165.802 191.485L165.807 191.475L165.811 191.466C165.974 191.114 166.143 190.64 166.31 190.027L158.369 177.888L165.47 173.243ZM168.461 189.662C168.213 190.756 167.935 191.637 167.627 192.305C167.311 193.008 166.804 193.588 166.108 194.044C165.216 194.627 164.396 194.775 163.649 194.487C162.901 194.2 162.093 193.392 161.225 192.065L154.969 182.503L151.216 184.958L157.792 195.01C159.13 197.055 160.547 198.365 162.042 198.941C163.551 199.538 165.165 199.275 166.884 198.15C167.993 197.424 168.809 196.533 169.33 195.478C169.517 195.088 169.687 194.689 169.841 194.281C170.095 193.61 170.303 192.916 170.466 192.197C170.468 192.187 170.471 192.177 170.473 192.167L170.603 192.082L172.274 194.065L175.374 192.036L164.891 176.012L161.138 178.467L168.461 189.662Z" fill="white"/>
<path fill-rule="evenodd" clip-rule="evenodd" d="M134.614 197.972L135.998 205.115L122.959 207.642L121.574 200.499L134.614 197.972ZM133.031 200.316L123.918 202.082L124.542 205.298L133.654 203.532L133.031 200.316Z" fill="white"/>
</svg>
