<svg width="222" height="574" viewBox="0 0 222 574" fill="none" xmlns="http://www.w3.org/2000/svg">
<path d="M87.6095 504.603L87.6665 523.518L38.6465 551.633L87.7508 551.485L87.8082 570.509L8.89445 570.746L8.83711 551.723L57.8572 523.662L8.75298 523.81L8.6958 504.841L87.6095 504.603Z" stroke="#FFFBFA" stroke-width="5"/>
<path d="M88.5742 465.034C88.6013 474.031 85.9495 481.32 80.6186 486.901C75.2516 492.481 68.2683 495.284 59.6688 495.31L58.1512 495.315C52.1532 495.333 46.8564 494.247 42.2609 492.057C37.6653 489.83 34.1145 486.589 31.6085 482.333C29.0664 478.077 27.7865 473.022 27.7689 467.169C27.744 458.93 30.2898 452.419 35.4063 447.634C40.4866 442.849 47.5976 440.443 56.7391 440.415L63.8392 440.394L63.9487 476.707C67.2348 476.047 69.8139 474.612 71.6862 472.402C73.5585 470.192 74.4893 467.335 74.4787 463.83C74.4613 458.049 72.4243 453.538 68.3676 450.299L78.2067 441.922C81.3571 444.189 83.878 447.415 85.7696 451.601C87.6248 455.751 88.5597 460.229 88.5742 465.034ZM41.8609 467.235C41.877 472.582 45.4276 475.751 52.5127 476.742L52.4571 458.314L51.0479 458.318C48.121 458.255 45.8649 459.002 44.2798 460.561C42.6585 462.119 41.8522 464.344 41.8609 467.235Z" stroke="#FFFBFA" stroke-width="5"/>
<path d="M63.1764 382.348L28.5797 376.545L28.5269 359.038L87.2119 372.682L87.2584 388.129L52.4919 397.936L87.3171 407.587L87.3636 423.033L28.762 437.031L28.7092 419.524L64.0837 413.618L28.6637 404.403L28.6253 391.666L63.1764 382.348Z" stroke="#FFFBFA" stroke-width="5"/>
<path d="M65.9668 283.155C63.1846 283.163 61.0196 284.163 59.4719 286.155C57.9241 288.111 56.3266 291.567 54.6794 296.522C53.0322 301.477 51.4365 305.529 49.8923 308.677C44.9007 318.918 38.0148 324.051 29.2345 324.078C24.8625 324.091 21.0105 322.838 17.6787 320.318C14.3106 317.763 11.6982 314.158 9.84138 309.502C7.94844 304.847 6.9932 299.61 6.97566 293.793C6.95856 288.12 7.95497 283.04 9.9649 278.554C11.9747 274.031 14.8548 270.518 18.605 268.013C22.3192 265.509 26.5791 264.249 31.3847 264.235L31.4419 283.205C28.2261 283.214 25.7359 284.215 23.9714 286.208C22.2068 288.165 21.3296 290.823 21.3397 294.183C21.3499 297.58 22.1168 300.269 23.6404 302.252C25.1277 304.199 27.0276 305.169 29.3401 305.162C31.3635 305.156 33.203 304.066 34.8586 301.893C36.478 299.72 38.1648 295.903 39.9188 290.442C41.6368 284.98 43.5021 280.494 45.515 276.983C50.4033 268.441 57.1654 264.157 65.8011 264.131C72.7024 264.11 78.1301 266.696 82.0843 271.887C86.0384 277.078 88.0292 284.208 88.0565 293.278C88.0758 299.673 86.9551 305.476 84.6944 310.686C82.3975 315.86 79.2657 319.772 75.2991 322.421C71.2962 325.035 66.6932 326.349 61.4901 326.365L61.4326 307.287C65.6601 307.274 68.7823 306.181 70.7992 304.007C72.7799 301.797 73.7628 298.235 73.748 293.321C73.7385 290.177 73.0626 287.704 71.7202 285.902C70.3416 284.063 68.4238 283.147 65.9668 283.155Z" stroke="#FFFBFA" stroke-width="5"/>
<path d="M57.8054 200.796C66.9109 200.769 74.1978 202.806 79.6663 206.909C85.0985 210.976 87.8251 216.496 87.8461 223.469C87.8623 228.853 85.9064 233.285 81.9784 236.766L109.349 236.683L109.404 254.948L28.2139 255.193L28.1624 238.12L33.5807 237.562C29.2342 234.07 27.0524 229.47 27.0352 223.761C27.0134 216.534 29.6703 210.908 35.0058 206.881C40.3052 202.854 47.616 200.827 56.9383 200.799L57.8054 200.796ZM56.7223 219.065C46.3161 219.096 41.1222 222.147 41.1405 228.217C41.1535 232.553 42.7159 235.439 45.8277 236.875L68.9165 236.805C72.1636 235.206 73.7808 232.274 73.7679 228.01C73.7504 222.193 68.7189 219.209 58.6735 219.059L56.7223 219.065Z" stroke="#FFFBFA" stroke-width="5"/>
<path d="M44.4495 157.26L44.0341 163.277C44.0514 169.022 45.8691 172.703 49.4873 174.318L86.6136 174.206L86.6687 192.471L28.0254 192.648L27.9737 175.521L35.5056 174.902C29.7513 171.848 26.8658 167.575 26.8493 162.083C26.8434 160.131 27.055 158.433 27.4843 156.986L44.4495 157.26Z" stroke="#FFFBFA" stroke-width="5"/>
<path d="M86.4842 131.28L86.5394 149.599L27.8961 149.776L27.8409 131.457L86.4842 131.28ZM12.7779 150.906C10.1764 150.914 8.04169 149.981 6.37393 148.107C4.70616 146.233 3.86776 143.796 3.85872 140.797C3.84968 137.798 4.67338 135.357 6.32982 133.473C7.98626 131.589 10.1153 130.643 12.7168 130.635C15.3184 130.627 17.453 131.56 19.1208 133.434C20.7885 135.308 21.6269 137.745 21.636 140.744C21.645 143.743 20.8213 146.184 19.1649 148.068C17.5084 149.952 15.3795 150.898 12.7779 150.906Z" stroke="#FFFBFA" stroke-width="5"/>
<path d="M27.7563 103.382L34.6378 102.765C29.3141 98.734 26.6415 93.1596 26.62 86.0414C26.6016 79.935 28.4126 75.3768 32.053 72.3668C35.6932 69.3206 41.1806 67.7323 48.5153 67.6018L86.2919 67.4879L86.3472 85.8072L49.3293 85.9188C46.3664 85.9277 44.2002 86.5304 42.8308 87.7269C41.4252 88.9236 40.7271 91.0937 40.7366 94.2372C40.7474 97.8143 42.1646 100.466 44.9881 102.192L86.3962 102.067L86.4512 120.332L27.8079 120.509L27.7563 103.382Z" stroke="#FFFBFA" stroke-width="5"/>
<path d="M56.5125 59.5562C50.5868 59.574 45.3446 58.6143 40.786 56.6768C36.2274 54.7394 32.7141 51.9497 30.2461 48.3077C27.7419 44.6658 26.4825 40.424 26.468 35.5822C26.4495 29.4758 28.4947 24.7 32.6035 21.255L27.5068 20.62L27.4569 4.03511L83.878 3.86505C89.045 3.84947 93.529 5.04641 97.3303 7.45586C101.168 9.82907 104.105 13.289 106.142 17.8356C108.215 22.3821 109.261 27.6544 109.279 33.6524C109.292 37.9522 108.491 42.1279 106.878 46.1797C105.264 50.1953 103.159 53.273 100.564 55.4126L89.8098 47.8029C93.8103 44.3944 95.8021 39.9079 95.7853 34.3435C95.7609 26.2497 91.5935 22.2154 83.283 22.2405L81.4402 22.246C85.317 25.7392 87.2634 30.1597 87.2795 35.5073C87.3011 42.6615 84.5905 48.451 79.1478 52.8756C73.6689 57.3004 66.3406 59.5266 57.1629 59.5542L56.5125 59.5562ZM57.5955 41.2335C62.4011 41.219 66.2104 40.3042 69.0233 38.4891C71.8001 36.6741 73.1835 34.1406 73.1737 30.8886C73.1619 26.9502 71.8344 24.0816 69.1912 22.2829L44.5307 22.3573C41.8622 24.1358 40.5339 26.9763 40.5456 30.8786C40.5554 34.1305 42.0265 36.6735 44.9588 38.5074C47.855 40.3415 52.0672 41.2502 57.5955 41.2335Z" stroke="#FFFBFA" stroke-width="5"/>
<path d="M190.812 478.709C196.305 478.946 201.169 480.413 205.405 483.11C209.604 485.807 212.868 489.609 215.195 494.516C217.522 499.387 218.695 504.966 218.714 511.253C218.745 521.623 215.392 529.8 208.653 535.782C201.914 541.764 192.384 544.774 180.063 544.811L176.16 544.823C168.428 544.846 161.667 543.53 155.878 540.873C150.052 538.181 145.56 534.31 142.401 529.261C139.206 524.212 137.599 518.363 137.579 511.715C137.55 502.14 140.056 494.436 145.097 488.603C150.102 482.771 157.03 479.444 165.88 478.622L165.937 497.592C161.132 497.751 157.685 498.971 155.596 501.254C153.507 503.537 152.47 507.009 152.484 511.67C152.498 516.403 154.279 519.867 157.827 522.06C161.374 524.253 167.032 525.393 174.801 525.478L180.384 525.461C188.803 525.435 194.816 524.369 198.423 522.263C202.029 520.12 203.825 516.465 203.809 511.298C203.796 506.926 202.756 503.587 200.69 501.281C198.623 498.975 195.35 497.756 190.869 497.625L190.812 478.709Z" stroke="#FFFBFA" stroke-width="5"/>
<path d="M187.651 472.865C181.797 472.883 176.591 471.761 172.031 469.498C167.435 467.235 163.902 463.976 161.433 459.72C158.963 455.464 157.719 450.463 157.702 444.718C157.675 435.938 160.382 429.01 165.823 423.935C171.228 418.86 178.609 416.308 187.968 416.28L188.618 416.278C197.76 416.251 205.03 418.776 210.429 423.855C215.792 428.897 218.487 435.754 218.513 444.426C218.538 452.773 216.065 459.483 211.094 464.556C206.087 469.63 199.302 472.379 190.74 472.802L187.651 472.865ZM188.734 454.597C194.154 454.581 198.126 453.72 200.65 452.014C203.174 450.308 204.431 447.793 204.421 444.469C204.401 437.965 199.387 434.656 189.378 434.541L187.535 434.547C177.02 434.578 171.773 437.955 171.794 444.675C171.812 450.782 176.357 454.074 185.427 454.553L188.734 454.597Z" stroke="#FFFBFA" stroke-width="5"/>
<path d="M217.261 388.875L217.316 407.195L134.067 407.446L134.012 389.126L217.261 388.875Z" stroke="#FFFBFA" stroke-width="5"/>
<path d="M217.169 358.307L217.224 376.626L133.975 376.877L133.92 358.558L217.169 358.307Z" stroke="#FFFBFA" stroke-width="5"/>
<path d="M218.134 318.63C218.161 327.627 215.509 334.916 210.178 340.497C204.811 346.077 197.828 348.881 189.228 348.906L187.71 348.911C181.712 348.929 176.416 347.843 171.82 345.653C167.225 343.426 163.674 340.185 161.168 335.929C158.626 331.673 157.346 326.618 157.328 320.765C157.303 312.526 159.849 306.015 164.966 301.23C170.046 296.445 177.157 294.039 186.298 294.011L193.398 293.99L193.508 330.303C196.794 329.643 199.373 328.208 201.245 325.998C203.118 323.788 204.049 320.931 204.038 317.426C204.021 311.645 201.984 307.134 197.927 303.895L207.766 295.518C210.916 297.785 213.437 301.012 215.329 305.197C217.184 309.347 218.119 313.825 218.134 318.63ZM171.42 320.831C171.436 326.178 174.987 329.347 182.072 330.338L182.016 311.91L180.607 311.914C177.68 311.851 175.424 312.598 173.839 314.157C172.218 315.715 171.411 317.94 171.42 320.831Z" stroke="#FFFBFA" stroke-width="5"/>
<path d="M203.87 261.764C203.863 259.198 203.17 257.213 201.793 255.808C200.379 254.403 198.426 253.723 195.933 253.766L195.881 236.639C202.313 236.62 207.595 238.917 211.728 243.529C215.861 248.106 217.939 254.025 217.961 261.288C217.986 269.815 215.333 276.544 210 281.474C204.667 286.404 197.267 288.883 187.801 288.912L187.042 288.914C181.116 288.932 175.892 287.864 171.369 285.71C166.809 283.519 163.313 280.368 160.88 276.256C158.41 272.145 157.167 267.27 157.15 261.634C157.127 254.01 159.222 247.951 163.436 243.458C167.65 238.965 173.371 236.707 180.597 236.685L180.649 253.812C177.614 253.821 175.285 254.569 173.664 256.056C172.042 257.542 171.235 259.532 171.243 262.025C171.257 266.758 174.283 269.513 180.319 270.29C182.235 270.537 184.873 270.656 188.233 270.645C194.123 270.628 198.204 269.911 200.476 268.495C202.748 267.079 203.88 264.835 203.87 261.764Z" stroke="#FFFBFA" stroke-width="5"/>
<path d="M143.492 207.801L158.072 207.757L158.042 198.109L170.725 198.071L170.754 207.718L197.583 207.638C199.787 207.631 201.321 207.229 202.186 206.431C203.051 205.634 203.48 204.061 203.472 201.712C203.467 199.905 203.354 198.388 203.134 197.16L216.195 197.121C217.253 200.406 217.788 203.837 217.798 207.414C217.817 213.701 216.35 218.349 213.396 221.357C210.442 224.364 205.948 225.878 199.914 225.896L170.809 225.983L170.832 233.463L158.149 233.501L158.127 226.022L143.547 226.066L143.492 207.801Z" stroke="#FFFBFA" stroke-width="5"/>
<path d="M216.606 171.429L216.661 189.748L158.018 189.925L157.963 171.606L216.606 171.429ZM142.9 191.055C140.298 191.063 138.163 190.13 136.496 188.256C134.828 186.382 133.989 183.945 133.98 180.946C133.971 177.947 134.795 175.506 136.451 173.622C138.108 171.738 140.237 170.792 142.838 170.784C145.44 170.776 147.575 171.709 149.242 173.583C150.91 175.457 151.749 177.894 151.758 180.893C151.767 183.892 150.943 186.333 149.286 188.217C147.63 190.101 145.501 191.047 142.9 191.055Z" stroke="#FFFBFA" stroke-width="5"/>
<path d="M186.715 162.522C180.862 162.54 175.655 161.417 171.095 159.155C166.5 156.892 162.967 153.633 160.497 149.376C158.027 145.12 156.784 140.12 156.766 134.374C156.74 125.594 159.447 118.667 164.888 113.592C170.292 108.517 177.674 105.965 187.032 105.937L187.683 105.935C196.824 105.907 204.095 108.433 209.494 113.511C214.857 118.554 217.551 125.411 217.577 134.083C217.602 142.429 215.129 149.14 210.158 154.213C205.151 159.287 198.366 162.035 189.804 162.459L186.715 162.522ZM187.798 144.254C193.218 144.237 197.19 143.376 199.714 141.67C202.238 139.964 203.496 137.449 203.486 134.125C203.466 127.621 198.452 124.312 188.442 124.198L186.6 124.203C176.085 124.235 170.838 127.611 170.858 134.332C170.876 140.438 175.421 143.731 184.492 144.209L187.798 144.254Z" stroke="#FFFBFA" stroke-width="5"/>
<path d="M157.69 81.202L164.572 80.5851C159.248 76.5542 156.575 70.9797 156.554 63.8616C156.535 57.7552 158.346 53.197 161.987 50.187C165.627 47.1408 171.114 45.5525 178.449 45.422L216.226 45.3081L216.281 63.6274L179.263 63.7389C176.3 63.7479 174.134 64.3506 172.765 65.5471C171.359 66.7437 170.661 68.9138 170.67 72.0574C170.681 75.6345 172.098 78.286 174.922 80.0119L216.33 79.8871L216.385 98.1521L157.742 98.3289L157.69 81.202Z" stroke="#FFFBFA" stroke-width="5"/>
</svg>
